<svg width="84" height="90" viewBox="0 0 84 90" fill="none" xmlns="http://www.w3.org/2000/svg">
<path d="M83.7 18.9L78.7 10.9C78.5175 10.6169 78.2654 10.3854 77.9677 10.2278C77.67 10.0702 77.3367 9.99173 77 10C76.6674 10.0134 76.342 10.1012 76.0478 10.257C75.7536 10.4127 75.4981 10.6325 75.3 10.9L70.3 18.9C70.1084 19.2353 70.0052 19.6138 70 20V73C70 74.8565 70.7375 76.637 72.0503 77.9497C73.363 79.2625 75.1435 80 77 80C78.8565 80 80.637 79.2625 81.9497 77.9497C83.2625 76.637 84 74.8565 84 73V20C83.9948 19.6138 83.8916 19.2353 83.7 18.9ZM77 15.8L80 20.6V66H74V20.6L77 15.8ZM77 76C76.604 76.0073 76.2106 75.9347 75.8433 75.7866C75.4761 75.6384 75.1424 75.4177 74.8624 75.1376C74.5823 74.8576 74.3616 74.5239 74.2134 74.1567C74.0653 73.7894 73.9927 73.396 74 73V70H80V73C80.0073 73.396 79.9347 73.7894 79.7866 74.1567C79.6384 74.5239 79.4177 74.8576 79.1376 75.1376C78.8576 75.4177 78.5239 75.6384 78.1567 75.7866C77.7894 75.9347 77.396 76.0073 77 76ZM58 0H6C4.41016 0.00474818 2.8868 0.638414 1.7626 1.7626C0.638414 2.8868 0.00474818 4.41016 0 6V84C0.00474818 85.5898 0.638414 87.1132 1.7626 88.2374C2.8868 89.3616 4.41016 89.9953 6 90H58C59.5898 89.9953 61.1132 89.3616 62.2374 88.2374C63.3616 87.1132 63.9953 85.5898 64 84V6C63.9953 4.41016 63.3616 2.8868 62.2374 1.7626C61.1132 0.638414 59.5898 0.00474818 58 0ZM60 84C59.9984 84.5299 59.7872 85.0377 59.4125 85.4125C59.0377 85.7872 58.5299 85.9984 58 86H6C5.47005 85.9984 4.96227 85.7872 4.58753 85.4125C4.2128 85.0377 4.00158 84.5299 4 84V6C4.00158 5.47005 4.2128 4.96227 4.58753 4.58753C4.96227 4.2128 5.47005 4.00158 6 4H58C58.5299 4.00158 59.0377 4.2128 59.4125 4.58753C59.7872 4.96227 59.9984 5.47005 60 6V84ZM20 14C20.0016 13.4701 20.2128 12.9623 20.5875 12.5875C20.9623 12.2128 21.4701 12.0016 22 12H42C42.5304 12 43.0391 12.2107 43.4142 12.5858C43.7893 12.9609 44 13.4696 44 14C44 14.5304 43.7893 15.0391 43.4142 15.4142C43.0391 15.7893 42.5304 16 42 16H22C21.4701 15.9984 20.9623 15.7872 20.5875 15.4125C20.2128 15.0377 20.0016 14.5299 20 14ZM52 24C51.9984 24.5299 51.7872 25.0377 51.4125 25.4125C51.0377 25.7872 50.5299 25.9984 50 26H14C13.4696 26 12.9609 25.7893 12.5858 25.4142C12.2107 25.0391 12 24.5304 12 24C12 23.4696 12.2107 22.9609 12.5858 22.5858C12.9609 22.2107 13.4696 22 14 22H50C50.5299 22.0016 51.0377 22.2128 51.4125 22.5875C51.7872 22.9623 51.9984 23.4701 52 24ZM52 34C51.9984 34.5299 51.7872 35.0377 51.4125 35.4125C51.0377 35.7872 50.5299 35.9984 50 36H14C13.4696 36 12.9609 35.7893 12.5858 35.4142C12.2107 35.0391 12 34.5304 12 34C12 33.4696 12.2107 32.9609 12.5858 32.5858C12.9609 32.2107 13.4696 32 14 32H50C50.5299 32.0016 51.0377 32.2128 51.4125 32.5875C51.7872 32.9623 51.9984 33.4701 52 34ZM52 44C51.9984 44.5299 51.7872 45.0377 51.4125 45.4125C51.0377 45.7872 50.5299 45.9984 50 46H14C13.4696 46 12.9609 45.7893 12.5858 45.4142C12.2107 45.0391 12 44.5304 12 44C12 43.4696 12.2107 42.9609 12.5858 42.5858C12.9609 42.2107 13.4696 42 14 42H50C50.5299 42.0016 51.0377 42.2128 51.4125 42.5875C51.7872 42.9623 51.9984 43.4701 52 44ZM52 66C51.9984 66.5299 51.7872 67.0377 51.4125 67.4125C51.0377 67.7872 50.5299 67.9984 50 68H14C13.4696 68 12.9609 67.7893 12.5858 67.4142C12.2107 67.0391 12 66.5304 12 66C12 65.4696 12.2107 64.9609 12.5858 64.5858C12.9609 64.2107 13.4696 64 14 64H50C50.5299 64.0016 51.0377 64.2128 51.4125 64.5875C51.7872 64.9623 51.9984 65.4701 52 66ZM52 76C51.9984 76.5299 51.7872 77.0377 51.4125 77.4125C51.0377 77.7872 50.5299 77.9984 50 78H14C13.4696 78 12.9609 77.7893 12.5858 77.4142C12.2107 77.0391 12 76.5304 12 76C12 75.4696 12.2107 74.9609 12.5858 74.5858C12.9609 74.2107 13.4696 74 14 74H50C50.5299 74.0016 51.0377 74.2128 51.4125 74.5875C51.7872 74.9623 51.9984 75.4701 52 76Z" fill="#011CFF"/>
</svg>
