<svg width="80" height="70" viewBox="0 0 80 70" fill="none" xmlns="http://www.w3.org/2000/svg">
<path fill-rule="evenodd" clip-rule="evenodd" d="M72.167 53.9008H48.447C49.3856 58.7104 52.0814 62.9983 56.009 65.9288H60.14C60.5958 65.9288 61.0329 66.1098 61.3552 66.4321C61.6774 66.7544 61.8585 67.1915 61.8585 67.6473C61.8585 68.103 61.6774 68.5401 61.3552 68.8624C61.0329 69.1847 60.5958 69.3658 60.14 69.3658H18.9C18.4442 69.3658 18.0071 69.1847 17.6848 68.8624C17.3626 68.5401 17.1815 68.103 17.1815 67.6473C17.1815 67.1915 17.3626 66.7544 17.6848 66.4321C18.0071 66.1098 18.4442 65.9288 18.9 65.9288H23.03C26.9576 62.9983 29.6534 58.7104 30.592 53.9008H6.873C5.05017 53.9008 3.30199 53.1766 2.01306 51.8877C0.724118 50.5988 0 48.8506 0 47.0278V7.50777C0 5.68493 0.724118 3.93676 2.01306 2.64782C3.30199 1.35888 5.05017 0.634766 6.873 0.634766H72.167C73.0696 0.634766 73.9633 0.812541 74.7972 1.15794C75.6311 1.50334 76.3887 2.0096 77.0269 2.64782C77.6652 3.28604 78.1714 4.04371 78.5168 4.87758C78.8622 5.71145 79.04 6.60519 79.04 7.50777V47.0278C79.04 47.9303 78.8622 48.8241 78.5168 49.6579C78.1714 50.4918 77.6652 51.2495 77.0269 51.8877C76.3887 52.5259 75.6311 53.0322 74.7972 53.3776C73.9633 53.723 73.0696 53.9008 72.167 53.9008ZM28.175 65.9288H50.865C47.6741 62.64 45.5952 58.4332 44.921 53.9008H34.121C33.4463 58.4335 31.3666 62.6403 28.175 65.9288ZM75.6 7.50777C75.6 6.59622 75.2379 5.722 74.5933 5.07744C73.9488 4.43288 73.0746 4.07077 72.163 4.07077H6.873C5.96145 4.07077 5.08724 4.43288 4.44267 5.07744C3.79811 5.722 3.436 6.59622 3.436 7.50777V40.1548H75.6V7.50777ZM75.6 43.5918H3.437V47.0288C3.43726 47.94 3.79936 48.8138 4.44367 49.4581C5.08799 50.1024 5.9618 50.4645 6.873 50.4648H72.167C73.0779 50.4637 73.951 50.1011 74.5947 49.4567C75.2384 48.8122 75.6 47.9386 75.6 47.0278V43.5918ZM39.52 48.7468C39.1802 48.7468 38.8481 48.646 38.5655 48.4572C38.283 48.2685 38.0628 48.0001 37.9328 47.6862C37.8027 47.3723 37.7687 47.0269 37.835 46.6936C37.9013 46.3603 38.0649 46.0542 38.3052 45.814C38.5455 45.5737 38.8516 45.4101 39.1848 45.3438C39.5181 45.2775 39.8635 45.3115 40.1774 45.4415C40.4914 45.5716 40.7597 45.7918 40.9485 46.0743C41.1372 46.3568 41.238 46.689 41.238 47.0288C41.238 47.4844 41.057 47.9214 40.7348 48.2436C40.4126 48.5658 39.9756 48.7468 39.52 48.7468Z" fill="#011CFF"/>
</svg>
