<svg width="94" height="92" viewBox="0 0 94 92" fill="none" xmlns="http://www.w3.org/2000/svg">
<path d="M69.969 31.323C70.2368 31.486 70.5379 31.5865 70.85 31.617C71.0569 31.6388 71.2648 31.5867 71.437 31.47C71.8519 31.1863 72.1615 30.7736 72.318 30.296L72.465 26.04C73.7324 25.7145 74.8543 24.974 75.6518 23.9366C76.4493 22.8991 76.8764 21.6245 76.865 20.316V6.371C76.8605 4.81564 76.2408 3.32523 75.1412 2.22523C74.0415 1.12524 72.5513 0.505013 70.996 0.5H47.366C45.8103 0.504485 44.3196 1.12448 43.2195 2.22453C42.1195 3.32459 41.4995 4.81529 41.495 6.371V12.1H25.795C24.2393 12.1045 22.7486 12.7245 21.6485 13.8245C20.5485 14.9246 19.9285 16.4153 19.924 17.971V31.771C19.9126 33.0795 20.3397 34.3541 21.1371 35.3916C21.9346 36.429 23.0566 37.1695 24.324 37.495L24.471 41.751C24.4511 42.0201 24.5293 42.2874 24.6913 42.5032C24.8533 42.7191 25.088 42.8689 25.352 42.925C25.5242 43.0417 25.7321 43.0938 25.939 43.072C26.251 43.0415 26.5521 42.941 26.82 42.778L34.012 37.641H49.274C50.8069 37.6448 52.2803 37.0476 53.3779 35.9774C54.4755 34.9073 55.1099 33.4496 55.145 31.917V26.039H62.484L69.969 31.323ZM52.351 31.91C52.3622 32.2985 52.2939 32.6851 52.1504 33.0463C52.0068 33.4074 51.791 33.7355 51.5162 34.0103C51.2414 34.2851 50.9134 34.5009 50.5523 34.6444C50.1911 34.7879 49.8044 34.8562 49.416 34.845H33.716C33.4039 34.8755 33.1028 34.976 32.835 35.139L27.404 38.955L27.257 36.166C27.2249 35.8009 27.0556 35.4616 26.7831 35.2164C26.5107 34.9713 26.1554 34.8385 25.789 34.845C25.0108 34.8434 24.2649 34.5338 23.7143 33.9838C23.1638 33.4338 22.8534 32.6882 22.851 31.91V18.11C22.8534 17.3323 23.1633 16.5872 23.7132 16.0373C24.2631 15.4874 25.0083 15.1774 25.786 15.175H41.641V20.459C41.6455 22.0147 42.2655 23.5054 43.3655 24.6055C44.4656 25.7055 45.9563 26.3255 47.512 26.33H52.502V31.91H52.351ZM53.819 23.25H47.366C46.5883 23.2476 45.8431 22.9376 45.2932 22.3877C44.7433 21.8378 44.4333 21.0927 44.431 20.315V6.371C44.4333 5.59332 44.7433 4.84817 45.2932 4.29826C45.8431 3.74836 46.5883 3.43837 47.366 3.436H70.996C71.7737 3.43837 72.5188 3.74836 73.0687 4.29826C73.6186 4.84817 73.9286 5.59332 73.931 6.371V20.171C73.927 20.9476 73.6163 21.6913 73.0666 22.2399C72.5169 22.7885 71.7726 23.0976 70.996 23.1C70.6295 23.0935 70.2743 23.2263 70.0018 23.4714C69.7294 23.7166 69.5601 24.0559 69.528 24.421L69.381 27.21L63.951 23.4C63.6831 23.237 63.382 23.1365 63.07 23.106H53.824L53.819 23.25ZM17.864 66.7C19.838 66.7 21.7678 66.1146 23.4091 65.0179C25.0505 63.9212 26.3298 62.3624 27.0852 60.5386C27.8407 58.7148 28.0383 56.7079 27.6532 54.7718C27.2681 52.8357 26.3175 51.0572 24.9216 49.6614C23.5257 48.2655 21.7473 47.3149 19.8112 46.9298C17.875 46.5447 15.8682 46.7423 14.0444 47.4978C12.2206 48.2532 10.6618 49.5325 9.56508 51.1739C8.46835 52.8152 7.88298 54.7449 7.88298 56.719C7.88562 59.3653 8.93804 61.9025 10.8093 63.7737C12.6805 65.6449 15.2177 66.6973 17.864 66.7ZM17.864 49.527C19.7323 49.5275 21.5239 50.2699 22.845 51.591C24.166 52.9121 24.9084 54.7037 24.909 56.572C24.8836 58.4326 24.1332 60.2098 22.8175 61.5255C21.5018 62.8413 19.7245 63.5916 17.864 63.617C15.9955 63.617 14.2036 62.8748 12.8824 61.5536C11.5612 60.2324 10.819 58.4404 10.819 56.572C10.819 54.7035 11.5612 52.9116 12.8824 51.5904C14.2036 50.2692 15.9955 49.527 17.864 49.527ZM23.882 68.6H12.874C11.216 68.5999 9.57426 68.9264 8.04252 69.5609C6.51077 70.1954 5.11903 71.1255 3.94681 72.298C2.7746 73.4705 1.84486 74.8624 1.21072 76.3943C0.576575 77.9262 0.250452 79.568 0.250977 81.226V90.032C0.25177 90.4211 0.406688 90.794 0.68182 91.0692C0.956952 91.3443 1.32988 91.4992 1.71898 91.5H34.89C35.2791 91.4992 35.652 91.3443 35.9271 91.0692C36.2023 90.794 36.3572 90.4211 36.358 90.032V81.226C36.3873 79.5725 36.0858 77.9298 35.4711 76.3945C34.8564 74.8592 33.9409 73.4624 32.7786 72.286C31.6162 71.1096 30.2303 70.1776 28.7025 69.5446C27.1747 68.9116 25.5357 68.5904 23.882 68.6ZM33.569 88.561H29.899V82.253C29.9041 82.0571 29.8699 81.8621 29.7985 81.6796C29.727 81.497 29.6197 81.3307 29.483 81.1903C29.3462 81.0499 29.1827 80.9383 29.0021 80.8621C28.8215 80.7859 28.6275 80.7467 28.4315 80.7467C28.2355 80.7467 28.0415 80.7859 27.8609 80.8621C27.6803 80.9383 27.5168 81.0499 27.38 81.1903C27.2432 81.3307 27.1359 81.497 27.0645 81.6796C26.993 81.8621 26.9589 82.0571 26.964 82.253V88.564H9.79098V82.253C9.79609 82.0571 9.76192 81.8621 9.69047 81.6796C9.61902 81.497 9.51174 81.3307 9.37497 81.1903C9.23819 81.0499 9.07469 80.9383 8.89409 80.8621C8.7135 80.7859 8.51948 80.7467 8.32348 80.7467C8.12747 80.7467 7.93345 80.7859 7.75286 80.8621C7.57227 80.9383 7.40876 81.0499 7.27199 81.1903C7.13521 81.3307 7.02793 81.497 6.95649 81.6796C6.88504 81.8621 6.85086 82.0571 6.85598 82.253V88.564H3.18598V81.226C3.18479 79.9536 3.43455 78.6934 3.92094 77.5175C4.40734 76.3417 5.12084 75.2734 6.02059 74.3736C6.92035 73.4739 7.98871 72.7604 9.16452 72.274C10.3403 71.7876 11.6005 71.5378 12.873 71.539H23.882C25.1544 71.5378 26.4146 71.7876 27.5904 72.274C28.7662 72.7604 29.8346 73.4739 30.7344 74.3736C31.6341 75.2734 32.3476 76.3417 32.834 77.5175C33.3204 78.6934 33.5702 79.9536 33.569 81.226V88.565V88.561ZM65.269 42.914C65.2682 44.8882 65.8529 46.8183 66.9491 48.4601C68.0453 50.102 69.6038 51.3819 71.4274 52.138C73.2511 52.8941 75.258 53.0924 77.1944 52.7078C79.1307 52.3232 80.9095 51.373 82.3058 49.9774C83.7021 48.5818 84.6532 46.8035 85.0388 44.8673C85.4243 42.9311 85.2271 40.9241 84.4719 39.1001C83.7167 37.276 82.4376 35.7169 80.7963 34.6199C79.1549 33.5228 77.2252 32.9372 75.251 32.937C72.6047 32.9396 70.0675 33.9921 68.1963 35.8633C66.325 37.7345 65.2726 40.2717 65.27 42.918L65.269 42.914ZM82.442 42.914C82.442 44.7825 81.6997 46.5744 80.3785 47.8956C79.0574 49.2168 77.2654 49.959 75.397 49.959C73.5285 49.959 71.7366 49.2168 70.4154 47.8956C69.0942 46.5744 68.352 44.7825 68.352 42.914C68.3773 41.0534 69.1277 39.2762 70.4435 37.9605C71.7592 36.6447 73.5364 35.8944 75.397 35.869C77.2653 35.8695 79.0569 36.6119 80.378 37.933C81.699 39.2541 82.4415 41.0457 82.442 42.914ZM81.27 54.806H70.262C68.6043 54.806 66.963 55.1325 65.4315 55.7669C63.9001 56.4013 62.5086 57.3311 61.3365 58.5033C60.1644 59.6754 59.2347 61.067 58.6005 62.5985C57.9662 64.1299 57.6398 65.7714 57.64 67.429V76.235C57.6416 76.6234 57.7967 76.9954 58.0715 77.2699C58.3464 77.5443 58.7186 77.6989 59.107 77.7H92.278C92.6674 77.7005 93.0412 77.5466 93.3173 77.272C93.5934 76.9974 93.7494 76.6244 93.751 76.235V67.429C93.7672 65.7788 93.4565 64.1416 92.8368 62.6121C92.2171 61.0825 91.3006 59.6908 90.1403 58.5173C88.9799 57.3438 87.5987 56.4116 86.0763 55.7746C84.5538 55.1376 82.9203 54.8084 81.27 54.806ZM90.957 74.767H87.288V68.456C87.278 68.0734 87.119 67.7099 86.8449 67.4428C86.5708 67.1758 86.2032 67.0263 85.8205 67.0263C85.4378 67.0263 85.0702 67.1758 84.7961 67.4428C84.522 67.7099 84.363 68.0734 84.353 68.456V74.767H67.327V68.456C67.317 68.0734 67.158 67.7099 66.8839 67.4428C66.6097 67.1758 66.2422 67.0263 65.8595 67.0263C65.4768 67.0263 65.1092 67.1758 64.8351 67.4428C64.561 67.7099 64.402 68.0734 64.392 68.456V74.767H60.722V67.429C60.7208 66.1566 60.9706 64.8964 61.4569 63.7205C61.9433 62.5447 62.6568 61.4764 63.5566 60.5766C64.4564 59.6769 65.5247 58.9634 66.7005 58.477C67.8763 57.9906 69.1365 57.7408 70.409 57.742H81.417C82.6894 57.7408 83.9496 57.9906 85.1254 58.477C86.3012 58.9634 87.3696 59.6769 88.2694 60.5766C89.1691 61.4764 89.8826 62.5447 90.369 63.7205C90.8554 64.8964 91.1052 66.1566 91.104 67.429V74.768L90.957 74.767Z" fill="#011CFF"/>
</svg>
