<svg width="54" height="69" viewBox="0 0 54 69" fill="none" xmlns="http://www.w3.org/2000/svg">
<path d="M51.7859 31.903H2.12194C1.76802 31.9126 1.43182 32.0599 1.18489 32.3137C0.937964 32.5674 0.799797 32.9075 0.799797 33.2615C0.799797 33.6155 0.937964 33.9556 1.18489 34.2093C1.43182 34.4631 1.76802 34.6104 2.12194 34.62H51.7859C52.1399 34.6104 52.476 34.4631 52.723 34.2093C52.9699 33.9556 53.1081 33.6155 53.1081 33.2615C53.1081 32.9075 52.9699 32.5674 52.723 32.3137C52.476 32.0599 52.1399 31.9126 51.7859 31.903ZM51.7859 43.085H2.12194C1.94043 43.0801 1.75978 43.1116 1.59066 43.1776C1.42153 43.2437 1.26736 43.343 1.13724 43.4696C1.00712 43.5962 0.903698 43.7477 0.833078 43.9149C0.762459 44.0822 0.726074 44.2619 0.726074 44.4435C0.726074 44.6251 0.762459 44.8048 0.833078 44.9721C0.903698 45.1393 1.00712 45.2908 1.13724 45.4174C1.26736 45.544 1.42153 45.6433 1.59066 45.7094C1.75978 45.7754 1.94043 45.8069 2.12194 45.802H51.7859C52.1399 45.7924 52.476 45.6451 52.723 45.3913C52.9699 45.1376 53.1081 44.7975 53.1081 44.4435C53.1081 44.0895 52.9699 43.7494 52.723 43.4957C52.476 43.2419 52.1399 43.0946 51.7859 43.085ZM51.7859 54.267H2.12194C1.94043 54.2621 1.75978 54.2936 1.59066 54.3596C1.42153 54.4257 1.26736 54.525 1.13724 54.6516C1.00712 54.7782 0.903698 54.9297 0.833078 55.0969C0.762459 55.2642 0.726074 55.4439 0.726074 55.6255C0.726074 55.8071 0.762459 55.9868 0.833078 56.1541C0.903698 56.3213 1.00712 56.4728 1.13724 56.5994C1.26736 56.726 1.42153 56.8253 1.59066 56.8914C1.75978 56.9574 1.94043 56.9889 2.12194 56.984H51.7859C51.9674 56.9889 52.1481 56.9574 52.3172 56.8914C52.4863 56.8253 52.6405 56.726 52.7706 56.5994C52.9008 56.4728 53.0042 56.3213 53.0748 56.1541C53.1454 55.9868 53.1818 55.8071 53.1818 55.6255C53.1818 55.4439 53.1454 55.2642 53.0748 55.0969C53.0042 54.9297 52.9008 54.7782 52.7706 54.6516C52.6405 54.525 52.4863 54.4257 52.3172 54.3596C52.1481 54.2936 51.9674 54.2621 51.7859 54.267ZM51.7859 65.45H31.5049C31.3234 65.4451 31.1428 65.4766 30.9737 65.5426C30.8045 65.6087 30.6504 65.708 30.5202 65.8346C30.3901 65.9612 30.2867 66.1127 30.2161 66.2799C30.1455 66.4472 30.1091 66.6269 30.1091 66.8085C30.1091 66.9901 30.1455 67.1698 30.2161 67.3371C30.2867 67.5043 30.3901 67.6558 30.5202 67.7824C30.6504 67.909 30.8045 68.0083 30.9737 68.0744C31.1428 68.1404 31.3234 68.1719 31.5049 68.167H51.7859C51.9674 68.1719 52.1481 68.1404 52.3172 68.0744C52.4863 68.0083 52.6405 67.909 52.7706 67.7824C52.9008 67.6558 53.0042 67.5043 53.0748 67.3371C53.1454 67.1698 53.1818 66.9901 53.1818 66.8085C53.1818 66.6269 53.1454 66.4472 53.0748 66.2799C53.0042 66.1127 52.9008 65.9612 52.7706 65.8346C52.6405 65.708 52.4863 65.6087 52.3172 65.5426C52.1481 65.4766 51.9674 65.4451 51.7859 65.45ZM32.3829 24.642H51.7829C52.1434 24.642 52.489 24.4988 52.7439 24.244C52.9988 23.9891 53.1419 23.6434 53.1419 23.283V1.359C53.1419 0.998572 52.9988 0.652905 52.7439 0.398043C52.489 0.143181 52.1434 1.47182e-06 51.7829 1.47182e-06H32.3829C32.2043 -0.00026142 32.0274 0.0346959 31.8623 0.102874C31.6971 0.171053 31.5471 0.271115 31.4207 0.397336C31.2943 0.523557 31.194 0.67346 31.1256 0.838472C31.0572 1.00348 31.0219 1.18037 31.0219 1.359V23.284C31.0218 23.4625 31.0569 23.6393 31.1251 23.8042C31.1934 23.9692 31.2935 24.119 31.4197 24.2453C31.5459 24.3715 31.6958 24.4716 31.8607 24.5398C32.0257 24.6081 32.2024 24.6431 32.3809 24.643L32.3829 24.642ZM33.7399 2.717H50.4279V21.927H33.7399V2.717Z" fill="#011CFF"/>
</svg>
